<svg width="400" height="300" viewBox="0 0 400 300" fill="none" xmlns="http://www.w3.org/2000/svg">
  <rect width="400" height="300" fill="#1F1F1F"/>
  <path d="M200 130C188.954 130 180 138.954 180 150C180 161.046 188.954 170 200 170C211.046 170 220 161.046 220 150C220 138.954 211.046 130 200 130ZM196 150C196 146.686 197.686 145 200 145C202.314 145 204 146.686 204 150C204 153.314 202.314 155 200 155C197.686 155 196 153.314 196 150Z" fill="#6B7280"/>
  <path d="M252 110H148C143.582 110 140 113.582 140 118V182C140 186.418 143.582 190 148 190H252C256.418 190 260 186.418 260 182V118C260 113.582 256.418 110 252 110ZM148 182V118H252L252.002 182H148Z" fill="#6B7280"/>
  <text x="200" y="220" text-anchor="middle" font-family="system-ui, -apple-system" font-size="16" fill="#6B7280">Image not found</text>
</svg> 